<?xml version="1.0" encoding="UTF-8"?>
<svg xmlns="http://www.w3.org/2000/svg" width="720" height="445" viewBox="0 0 720 445">
  <defs>
    <style>
      text {
        font-family: -apple-system, BlinkMacSystemFont, "Segoe UI", Roboto, Arial, sans-serif;
        font-size: 14px;
        fill: #0b2b2b;
      }
    </style>
  </defs>
  <rect width="100%" height="100%" fill="#a7b6d9"/>
  
        <path d="
          M 35 30
          L 325 30
          Q 340 30 340 45
          L 340 67
          Q 340 82 325 82
          L 45 82
          L 35 90
          L 35 82
          Q 20 82 20 67
          L 20 45
          Q 20 30 35 30
          Z
        " fill="#ffffff"
              stroke="rgba(3, 30, 32, 0.06)" stroke-width="1"/>
      
          <text x="36" y="62" fill="#0b2b2b"
                font-family="-apple-system, BlinkMacSystemFont, 'Segoe UI', Roboto, Arial, sans-serif"
                font-size="14">こんにちは、今日は何をしましょうか？</text>
        
        <path d="
          M 415 105
          L 685 105
          Q 700 105 700 120
          L 700 142
          Q 700 157 685 157
          L 685 165
          L 675 157
          L 415 157
          Q 400 157 400 142
          L 400 120
          Q 400 105 415 105
          Z
        " fill="#9efb7a"
              stroke="rgba(3, 30, 32, 0.06)" stroke-width="1"/>
      
          <text x="416" y="137" fill="#0b2b2b"
                font-family="-apple-system, BlinkMacSystemFont, 'Segoe UI', Roboto, Arial, sans-serif"
                font-size="14">映画でも観ようかなと思ってる！</text>
        
        <path d="
          M 35 180
          L 305 180
          Q 320 180 320 195
          L 320 217
          Q 320 232 305 232
          L 45 232
          L 35 240
          L 35 232
          Q 20 232 20 217
          L 20 195
          Q 20 180 35 180
          Z
        " fill="#ffffff"
              stroke="rgba(3, 30, 32, 0.06)" stroke-width="1"/>
      
          <text x="36" y="212" fill="#0b2b2b"
                font-family="-apple-system, BlinkMacSystemFont, 'Segoe UI', Roboto, Arial, sans-serif"
                font-size="14">いいですね。SF系はどうですか？</text>
        
        <path d="
          M 415 255
          L 685 255
          Q 700 255 700 270
          L 700 292
          Q 700 307 685 307
          L 685 315
          L 675 307
          L 415 307
          Q 400 307 400 292
          L 400 270
          Q 400 255 415 255
          Z
        " fill="#9efb7a"
              stroke="rgba(3, 30, 32, 0.06)" stroke-width="1"/>
      
          <text x="416" y="287" fill="#0b2b2b"
                font-family="-apple-system, BlinkMacSystemFont, 'Segoe UI', Roboto, Arial, sans-serif"
                font-size="14">うん、興味ある。おすすめある？</text>
        
        <path d="
          M 35 330
          L 357 330
          Q 372 330 372 345
          L 372 387
          Q 372 402 357 402
          L 45 402
          L 35 410
          L 35 402
          Q 20 402 20 387
          L 20 345
          Q 20 330 35 330
          Z
        " fill="#ffffff"
              stroke="rgba(3, 30, 32, 0.06)" stroke-width="1"/>
      
          <text x="36" y="362" fill="#0b2b2b"
                font-family="-apple-system, BlinkMacSystemFont, 'Segoe UI', Roboto, Arial, sans-serif"
                font-size="14">『インターステラー』はどうでしょう。感動</text>
        
          <text x="36" y="382" fill="#0b2b2b"
                font-family="-apple-system, BlinkMacSystemFont, 'Segoe UI', Roboto, Arial, sans-serif"
                font-size="14">しますよ。</text>
        
</svg>